<?xml version="1.0" standalone="no"?>
<!DOCTYPE svg PUBLIC "-//W3C//DTD SVG 20010904//EN"
 "http://www.w3.org/TR/2001/REC-SVG-20010904/DTD/svg10.dtd">
<svg version="1.0" xmlns="http://www.w3.org/2000/svg"
 width="580.000000pt" height="386.000000pt" viewBox="0 0 580.000000 386.000000"
 preserveAspectRatio="xMidYMid meet">

<g transform="translate(0.000000,386.000000) scale(0.100000,-0.100000)"
fill="#000000" stroke="none">
<path d="M3589 2070 c-94 -50 -113 -179 -39 -264 39 -44 79 -60 135 -54 91 11
151 88 143 184 -10 122 -132 190 -239 134z m124 -41 c79 -43 86 -144 15 -204
-70 -59 -168 0 -168 100 0 82 85 140 153 104z"/>
<path d="M4182 2070 c-83 -51 -47 -144 63 -165 86 -17 117 -53 75 -87 -30 -25
-94 -23 -137 3 -27 17 -36 19 -48 9 -20 -16 -6 -34 46 -61 47 -23 100 -24 145
-3 34 16 64 58 64 88 0 30 -49 73 -97 86 -105 27 -129 46 -98 81 27 29 63 32
112 8 31 -15 48 -18 55 -11 16 16 3 37 -35 55 -47 23 -105 21 -145 -3z"/>
<path d="M1460 2048 c-33 -54 -43 -97 -38 -167 8 -107 68 -195 167 -242 64
-31 168 -32 233 -2 l46 21 82 -89 c64 -70 87 -89 108 -89 33 0 45 8 60 37 17
31 7 49 -81 142 -51 55 -77 90 -73 100 2 9 12 34 20 56 8 22 15 58 16 81 0 52
-25 135 -50 166 l-19 23 -36 -36 c-37 -36 -37 -37 -21 -67 20 -38 21 -124 2
-160 -68 -129 -250 -139 -322 -16 -31 53 -36 108 -15 171 14 43 14 43 -17 73
-18 16 -34 30 -37 30 -3 0 -14 -15 -25 -32z"/>
<path d="M2154 2067 c-2 -7 -3 -80 -2 -162 3 -142 4 -150 23 -150 18 0 20 8
23 67 l3 67 67 3 c59 3 67 5 67 23 0 18 -8 20 -67 23 l-68 3 0 44 0 45 68 0
c74 0 98 10 89 34 -5 13 -24 16 -102 16 -69 0 -97 -4 -101 -13z"/>
<path d="M2415 2068 c-3 -8 -4 -81 -3 -163 3 -142 4 -150 23 -150 19 0 20 7
20 160 0 144 -2 160 -18 163 -9 2 -19 -3 -22 -10z"/>
<path d="M2524 2067 c-2 -7 -3 -80 -2 -162 3 -142 4 -150 23 -150 19 0 20 8
23 108 l3 109 80 -112 c111 -152 114 -150 114 55 0 153 -1 160 -20 160 -18 0
-20 -8 -25 -109 l-5 -110 -79 112 c-76 106 -100 128 -112 99z"/>
<path d="M2854 2067 c-2 -7 -3 -80 -2 -162 l3 -150 71 0 c61 0 75 4 106 27 49
37 71 89 66 150 -6 55 -28 92 -78 126 -26 17 -47 22 -97 22 -43 0 -65 -4 -69
-13z m136 -52 c32 -17 60 -61 60 -95 0 -63 -57 -120 -120 -120 l-30 0 0 115 0
115 30 0 c17 0 44 -7 60 -15z"/>
<path d="M3426 2065 c-3 -9 -6 -66 -6 -125 0 -101 -2 -110 -22 -124 -34 -24
-63 -19 -91 14 -42 50 -81 35 -52 -20 44 -86 176 -74 215 19 6 16 10 72 8 136
-3 103 -4 110 -24 113 -13 2 -24 -4 -28 -13z"/>
<path d="M3894 2067 c-2 -7 -3 -80 -2 -162 l3 -150 72 -3 c67 -3 74 -1 105 27
42 37 46 96 9 134 -19 21 -21 29 -11 47 16 30 3 76 -27 100 -31 24 -140 29
-149 7z m124 -65 c5 -32 -16 -54 -47 -50 -23 3 -26 8 -26 41 0 37 0 38 35 35
28 -2 36 -8 38 -26z m20 -114 c7 -7 12 -24 12 -38 0 -37 -18 -50 -66 -50 l-42
0 0 50 0 50 42 0 c23 0 47 -5 54 -12z"/>
</g>
</svg>
